<svg width="96" height="96" viewBox="0 0 96 96" fill="none" xmlns="http://www.w3.org/2000/svg">
<path d="M50.3401 69.1008H22.1539C20.113 69.1008 18.4615 70.7522 18.4615 72.7931C18.4615 74.834 20.113 76.4854 22.1539 76.4854H50.3401C52.381 76.4854 54.0325 74.834 54.0325 72.7931C54.0325 70.7522 52.381 69.1008 50.3401 69.1008ZM50.3438 54.1585C43.6129 54.1535 49.4355 54.1484 22.1539 54.191C20.113 54.191 18.4615 55.8424 18.4615 57.8833C18.4615 59.9241 20.113 61.5756 22.1539 61.5756C22.5243 61.5751 52.3666 61.5448 50.3401 61.5431C52.3774 61.5431 54.0325 59.8917 54.0325 57.8544C54.0325 55.8135 52.381 54.1585 50.3438 54.1585ZM47.5349 19.4746L24.9411 19.4998C21.3678 19.5071 18.4615 22.4205 18.4615 25.9902V39.191C18.4615 42.7715 21.3714 45.6813 24.9519 45.6813H47.5421C51.1226 45.6813 54.0325 42.7715 54.0325 39.191V25.965C54.0325 22.3845 51.119 19.4746 47.5349 19.4746ZM46.6478 38.2967H25.8462V26.8845L46.6478 26.8592V38.2967Z" fill="#FAFAFA"/>
<path d="M92.3077 20.8322C92.3077 12.3443 85.9399 5.3094 77.8125 4.82262C75.5407 4.67436 23.3786 4.79279 19.1394 4.79377C10.6226 4.79377 3.69232 11.7241 3.69232 20.2409V84.1856C3.69232 88.0834 6.86179 91.2529 10.7596 91.2529H61.7344C65.6322 91.2529 68.8017 88.0834 68.8017 84.1856V51.1495H85.2404C89.1382 51.1495 92.3077 47.9801 92.3077 44.0822V20.8322ZM61.4171 83.8683H11.0769V20.2409C11.0769 15.795 14.6935 12.1784 19.1394 12.1784C24.462 12.1737 10.6843 12.1859 63.7031 12.1387C62.2206 14.5223 61.4171 17.6721 61.4171 20.2409V47.4572V83.8683ZM84.9231 43.7649H68.8017V20.2409C68.8017 15.3016 73.0739 11.9248 77.3726 12.1928C81.5337 12.4452 84.9231 16.3178 84.9231 20.8322V43.7649Z" fill="#FAFAFA"/>
</svg>
